<svg width="366" height="457" viewBox="0 0 366 457" fill="none" xmlns="http://www.w3.org/2000/svg">
<line x1="326" y1="33" x2="326" y2="434" stroke="black" stroke-width="2" stroke-linecap="round"/>
<line x1="331" y1="28" x2="331" y2="428" stroke="black" stroke-width="2" stroke-linecap="round"/>
<line x1="336" y1="23" x2="336" y2="422" stroke="black" stroke-width="2" stroke-linecap="round"/>
<line x1="341" y1="18" x2="341" y2="417" stroke="black" stroke-width="2" stroke-linecap="round"/>
<line x1="24" y1="33" x2="326" y2="33" stroke="black" stroke-width="2" stroke-linecap="round"/>
<line x1="29" y1="28" x2="331" y2="28" stroke="black" stroke-width="2" stroke-linecap="round"/>
<line x1="33" y1="23" x2="336" y2="23" stroke="black" stroke-width="2" stroke-linecap="round"/>
<line x1="38" y1="18" x2="341" y2="18" stroke="black" stroke-width="2" stroke-linecap="round"/>
<line x1="14.886" y1="40.4663" x2="41.4663" y2="12.114" stroke="#0CF0FF" stroke-width="5" stroke-linecap="round" stroke-linejoin="round"/>
<line x1="319.837" y1="442.468" x2="347.468" y2="412.163" stroke="url(#paint0_linear)" stroke-width="5" stroke-linecap="round" stroke-linejoin="round"/>
<line x1="42.5" y1="11.5" x2="347.5" y2="11.5" stroke="#0CF0FF" stroke-width="5" stroke-linecap="round"/>
<line x1="347.5" y1="411.5" x2="347.5" y2="11.5" stroke="url(#paint1_linear)" stroke-width="5" stroke-linecap="round"/>
<rect x="14.5" y="39.5" width="305" height="405" fill="url(#paint2_linear)" stroke="url(#paint3_linear)" stroke-width="5" stroke-linecap="round" stroke-linejoin="round"/>
<path d="M57.7573 210H50.5573V146.448H79.1653C85.8853 146.448 91.2293 148.304 95.1973 152.016C99.1013 155.728 101.053 160.688 101.053 166.896C101.053 173.168 99.0693 178.16 95.1013 181.872C91.1973 185.52 85.8853 187.344 79.1653 187.344H57.7573V210ZM57.7573 153.264V180.624H78.6853C83.6773 180.624 87.4533 179.408 90.0133 176.976C92.5733 174.544 93.8533 171.216 93.8533 166.992C93.8533 162.704 92.5733 159.344 90.0133 156.912C87.4533 154.48 83.6773 153.264 78.6853 153.264H57.7573ZM118.039 146.448V203.088H152.695V210H110.839V146.448H118.039ZM217.514 210H209.546L201.77 191.568H170.282L162.506 210H154.538L181.514 146.448H190.538L217.514 210ZM198.986 184.944L186.026 153.936L173.066 184.944H198.986ZM280.405 146.448V210H272.052L232.789 156.336V210H225.589V146.448H233.941L273.205 199.92V146.448H280.405ZM87.3208 262.248C87.3208 269.224 84.4728 273.992 78.7768 276.552C84.0248 278.28 87.6088 281.448 89.5288 286.056C90.2328 287.848 90.5848 289.928 90.5848 292.296C90.5848 299.976 86.5208 305.096 78.3928 307.656C75.7048 308.552 72.5368 309 68.8888 309H38.7448V245.448H67.2568C74.1048 245.448 79.3208 247.304 82.9048 251.016C85.8488 253.96 87.3208 257.704 87.3208 262.248ZM45.9448 273.864H67.2568C73.1448 273.864 77.0808 271.848 79.0648 267.816C79.7688 266.408 80.1208 264.904 80.1208 263.304C80.1208 261.64 79.8968 260.2 79.4487 258.984C79.0008 257.704 78.2968 256.584 77.3368 255.624C75.2248 253.384 72.1208 252.264 68.0248 252.264H45.9448V273.864ZM69.6568 302.184C74.0728 302.184 77.4648 301.288 79.8328 299.496C82.2008 297.64 83.3848 295.048 83.3848 291.72C83.3848 288.52 82.2328 285.896 79.9288 283.848C77.3688 281.544 73.6888 280.392 68.8888 280.392H45.9448V302.184H69.6568ZM130.531 244.68C140.003 244.68 147.779 247.848 153.859 254.184C159.811 260.328 162.787 268.008 162.787 277.224C162.787 286.44 159.811 294.12 153.859 300.264C147.779 306.6 140.003 309.768 130.531 309.768C121.059 309.768 113.283 306.6 107.203 300.264C101.251 294.12 98.2753 286.44 98.2753 277.224C98.2753 268.008 101.251 260.328 107.203 254.184C113.283 247.848 121.059 244.68 130.531 244.68ZM130.531 302.76C138.083 302.76 144.195 300.296 148.867 295.368C153.347 290.632 155.587 284.584 155.587 277.224C155.587 269.864 153.347 263.816 148.867 259.08C144.195 254.152 138.083 251.688 130.531 251.688C122.979 251.688 116.867 254.152 112.195 259.08C107.715 263.816 105.475 269.864 105.475 277.224C105.475 284.584 107.715 290.632 112.195 295.368C116.867 300.296 122.979 302.76 130.531 302.76ZM202.531 244.68C212.003 244.68 219.779 247.848 225.859 254.184C231.811 260.328 234.787 268.008 234.787 277.224C234.787 286.44 231.811 294.12 225.859 300.264C219.779 306.6 212.003 309.768 202.531 309.768C193.059 309.768 185.283 306.6 179.203 300.264C173.251 294.12 170.275 286.44 170.275 277.224C170.275 268.008 173.251 260.328 179.203 254.184C185.283 247.848 193.059 244.68 202.531 244.68ZM202.531 302.76C210.083 302.76 216.195 300.296 220.867 295.368C225.347 290.632 227.587 284.584 227.587 277.224C227.587 269.864 225.347 263.816 220.867 259.08C216.195 254.152 210.083 251.688 202.531 251.688C194.979 251.688 188.867 254.152 184.195 259.08C179.715 263.816 177.475 269.864 177.475 277.224C177.475 284.584 179.715 290.632 184.195 295.368C188.867 300.296 194.979 302.76 202.531 302.76ZM271.939 270.984L300.547 309H291.523L266.659 275.88L253.507 288.168V309H246.307V245.448H253.507V278.568L288.835 245.448H299.011L271.939 270.984Z" fill="#68797A"/>
<defs>
<linearGradient id="paint0_linear" x1="335.5" y1="429" x2="336.239" y2="429.674" gradientUnits="userSpaceOnUse">
<stop stop-color="#00FFB2"/>
<stop offset="1" stop-color="#0CF0FF"/>
</linearGradient>
<linearGradient id="paint1_linear" x1="350.002" y1="9" x2="350" y2="414" gradientUnits="userSpaceOnUse">
<stop stop-color="#0CF0FF"/>
<stop offset="1" stop-color="#00FFB2"/>
</linearGradient>
<linearGradient id="paint2_linear" x1="167" y1="42" x2="167" y2="442" gradientUnits="userSpaceOnUse">
<stop stop-color="#0CF0FF"/>
<stop offset="1" stop-color="#00FFB2"/>
</linearGradient>
<linearGradient id="paint3_linear" x1="167" y1="42" x2="167" y2="442" gradientUnits="userSpaceOnUse">
<stop stop-color="#0CF0FF"/>
<stop offset="1" stop-color="#00FFB2"/>
</linearGradient>
</defs>
</svg>
